<?xml version="1.0" encoding="UTF-8"?>
<svg id="Capa_2" data-name="Capa 2" xmlns="http://www.w3.org/2000/svg" viewBox="0 0 217.58 55.92">
  <defs>
    <style>
      .cls-1 {
        fill: #211915;
      }
    </style>
  </defs>
  <g id="Capa_1-2" data-name="Capa 1">
    <g>
      <path class="cls-1" d="m23.43.79h6.78s.03.01.03.03v44.51s-.01.03-.03.03h-6.78s-.03-.01-.03-.03v-17.77s-.03-.04-.05-.02c-2.3,1.64-5.09,2.56-8.23,2.56s-6.01-.92-8.31-2.56c-.02-.01-.05,0-.05.02l-.07,17.77s-.01.03-.03.03H.03s-.03-.01-.03-.03V.82s.01-.03.03-.03h6.85s.03.01.03.03l-.07,14.66c.07,4.49,3.67,8.06,8.14,8.14s8.42-3.98,8.42-8.62V.82s.01-.03.03-.03Z"/>
      <path class="cls-1" d="m69.48,15.13v30.17s-.03.06-.06.06h-6.72s-.06-.03-.06-.06v-18.54c0-.05-.06-.08-.1-.05-2.28,1.68-4.91,2.45-7.75,2.45s-5.47-.7-7.68-2.37c-.04-.03-.1,0-.1.05v18.46s-.03.06-.06.06h-6.72s-.06-.03-.06-.06V14.47C40.18,5.85,47.89-1.01,56.71.12c7.4.95,12.78,7.55,12.78,15.01Zm-6.84-.45c0-4.75-3.53-8.21-7.85-8.21s-7.78,3.46-7.78,8.21,3.46,7.92,7.78,7.92,7.85-3.17,7.85-7.92Z"/>
      <path class="cls-1" d="m85.03,18.22c10.8-.86,20.67,4.75,20.67,16.27l.54,21.43H0v-6.48h99.4l-.54-14.52c0-9.22-8.5-10.94-17.21-10.23l-3.38.29-.07-11.16c-.07-8.14,5.18-13.83,14.4-13.83,6.12,0,11.59,3.31,14.19,9.94l-6.34,2.95c-1.66-4.68-4.54-6.41-7.92-6.41-4.39,0-7.49,2.74-7.49,7.85v3.89Z"/>
      <path class="cls-1" d="m113.25.72h27.72v6.48h-10.44v48.72h-6.84V7.2h-10.44V.72Z"/>
      <path class="cls-1" d="m167.11,26.79h-14.26v22.65h64.73v6.48h-71.57V13.83c0-8.14,5.18-13.83,14.4-13.83,6.12,0,11.59,3.31,14.19,9.94l-6.34,2.95c-1.66-4.68-4.54-6.41-7.92-6.41-4.39,0-7.49,2.74-7.49,7.85v5.98h15.7l-1.44,6.48Z"/>
      <path class="cls-1" d="m211.1.72h6.48v45.36h-5.62c-8.93,0-12.17-6.05-13.54-14.26l-2.23-13.68c-1.08-6.48-2.16-11.38-7.34-11.67v38.88h-6.48V0h5.76c10.37,0,12.96,7.2,14.62,17.64l2.02,12.89c.79,4.97,2.38,8.71,6.34,9.07V.72Z"/>
    </g>
  </g>
</svg>